<?xml version="1.0" standalone="no"?><svg xmlns="http://www.w3.org/2000/svg" viewBox="0 0 1440 320"><path fill="#0099ff" fill-opacity="1" d="M0,32L24,42.7C48,53,96,75,144,74.7C192,75,240,53,288,64C336,75,384,117,432,154.7C480,192,528,224,576,197.3C624,171,672,85,720,90.7C768,96,816,192,864,240C912,288,960,288,1008,293.3C1056,299,1104,309,1152,266.7C1200,224,1248,128,1296,96C1344,64,1392,96,1416,112L1440,128L1440,320L1416,320C1392,320,1344,320,1296,320C1248,320,1200,320,1152,320C1104,320,1056,320,1008,320C960,320,912,320,864,320C816,320,768,320,720,320C672,320,624,320,576,320C528,320,480,320,432,320C384,320,336,320,288,320C240,320,192,320,144,320C96,320,48,320,24,320L0,320Z"></path></svg>